<svg xmlns="http://www.w3.org/2000/svg" width="1200" height="675" viewBox="0 0 1200 675">
  <rect width="1200" height="675" fill="#F5F7FA"/><rect x="0" y="0" width="1200" height="76" fill="#172033"/>
  <text x="42" y="36" fill="#FFFFFF" font-family="Segoe UI" font-size="24" font-weight="700">Order-to-Cash Governance</text><text x="42" y="59" fill="#B7C3D7" font-family="Segoe UI" font-size="13">UCI Online Retail II · Validation &amp; migration readiness</text>
  <rect x="1002" y="22" width="158" height="32" rx="16" fill="#0B6B5E"/><text x="1081" y="43" text-anchor="middle" fill="#E8FFF9" font-family="Segoe UI" font-size="12" font-weight="700">LIVE ERP UAT PASS</text>
  <g font-family="Segoe UI">
    <rect x="40" y="100" width="205" height="100" rx="10" fill="#FFFFFF" stroke="#D8DEE9"/><text x="58" y="128" fill="#64748B" font-size="12">SOURCE ROWS</text><text x="58" y="166" fill="#172033" font-size="29" font-weight="700">1,067,371</text><text x="58" y="187" fill="#0B5C6B" font-size="11">Published count reconciled</text>
    <rect x="265" y="100" width="205" height="100" rx="10" fill="#FFFFFF" stroke="#D8DEE9"/><text x="283" y="128" fill="#64748B" font-size="12">ACCEPTED ROWS</text><text x="283" y="166" fill="#172033" font-size="29" font-weight="700">815,996</text><text x="283" y="187" fill="#16A085" font-size="11">76.45% of source</text>
    <rect x="490" y="100" width="205" height="100" rx="10" fill="#FFFFFF" stroke="#D8DEE9"/><text x="508" y="128" fill="#64748B" font-size="12">REJECTED ROWS</text><text x="508" y="166" fill="#172033" font-size="29" font-weight="700">251,375</text><text x="508" y="187" fill="#C2413B" font-size="11">Reason-coded quarantine</text>
    <rect x="715" y="100" width="205" height="100" rx="10" fill="#FFFFFF" stroke="#D8DEE9"/><text x="733" y="128" fill="#64748B" font-size="12">ACCEPTED NET SCOPE</text><text x="733" y="166" fill="#172033" font-size="29" font-weight="700">£17.15M</text><text x="733" y="187" fill="#64748B" font-size="11">Sales less matched returns</text>
    <rect x="940" y="100" width="220" height="100" rx="10" fill="#FFFFFF" stroke="#D8DEE9"/><text x="958" y="128" fill="#64748B" font-size="12">RETURN MATCH RATE</text><text x="958" y="166" fill="#172033" font-size="29" font-weight="700">63.93%</text><text x="958" y="187" fill="#E3A008" font-size="11">5,301 of 8,292 documents</text>
  </g>
  <rect x="40" y="224" width="690" height="405" rx="10" fill="#FFFFFF" stroke="#D8DEE9"/><text x="64" y="258" fill="#172033" font-family="Segoe UI" font-size="17" font-weight="700">Rejected rows by control</text><text x="64" y="280" fill="#64748B" font-family="Segoe UI" font-size="11">Counts are non-additive when a row fails more than one rule</text>
  <g font-family="Segoe UI" font-size="12">
    <text x="64" y="325" fill="#172033">Missing customer · DQ001</text><rect x="250" y="309" width="420" height="22" rx="4" fill="#C2413B"/><text x="682" y="325" fill="#64748B">243,007</text>
    <text x="64" y="383" fill="#172033">Unmatched return · DQ009</text><rect x="250" y="367" width="420" height="22" rx="4" fill="#D8DEE9"/><rect x="250" y="367" width="16" height="22" rx="4" fill="#E3A008"/><text x="682" y="383" fill="#64748B">9,047</text>
    <text x="64" y="441" fill="#172033">Non-positive price · DQ006</text><rect x="250" y="425" width="420" height="22" rx="4" fill="#D8DEE9"/><rect x="250" y="425" width="11" height="22" rx="4" fill="#E3A008"/><text x="682" y="441" fill="#64748B">6,207</text>
    <text x="64" y="499" fill="#172033">Negative sale qty · DQ007</text><rect x="250" y="483" width="420" height="22" rx="4" fill="#D8DEE9"/><rect x="250" y="483" width="6" height="22" rx="4" fill="#E3A008"/><text x="682" y="499" fill="#64748B">3,457</text>
    <text x="64" y="557" fill="#172033">Invalid return sign · DQ008</text><rect x="250" y="541" width="420" height="22" rx="4" fill="#D8DEE9"/><rect x="250" y="541" width="2" height="22" rx="1" fill="#E3A008"/><text x="682" y="557" fill="#64748B">1</text>
  </g>
  <rect x="754" y="224" width="406" height="197" rx="10" fill="#FFFFFF" stroke="#D8DEE9"/><text x="778" y="258" fill="#172033" font-family="Segoe UI" font-size="17" font-weight="700">Control status</text>
  <g font-family="Segoe UI" font-size="13"><circle cx="789" cy="296" r="7" fill="#16A085"/><text x="807" y="301" fill="#172033">Published row count</text><text x="1130" y="301" text-anchor="end" fill="#16A085" font-weight="700">PASS</text><circle cx="789" cy="332" r="7" fill="#16A085"/><text x="807" y="337" fill="#172033">Count &amp; revenue disposition</text><text x="1130" y="337" text-anchor="end" fill="#16A085" font-weight="700">PASS</text><circle cx="789" cy="368" r="7" fill="#16A085"/><text x="807" y="373" fill="#172033">ERP documents &amp; GL balance</text><text x="1130" y="373" text-anchor="end" fill="#16A085" font-weight="700">PASS (UAT)</text></g>
  <rect x="754" y="443" width="406" height="186" rx="10" fill="#FFFFFF" stroke="#D8DEE9"/><text x="778" y="477" fill="#172033" font-family="Segoe UI" font-size="17" font-weight="700">Document disposition</text>
  <g font-family="Segoe UI" font-size="12"><text x="778" y="516" fill="#64748B">Accepted sales</text><text x="1125" y="516" text-anchor="end" fill="#172033" font-size="18" font-weight="700">36,969</text><text x="778" y="551" fill="#64748B">Accepted returns</text><text x="1125" y="551" text-anchor="end" fill="#172033" font-size="18" font-weight="700">5,301</text><line x1="778" y1="568" x2="1130" y2="568" stroke="#D8DEE9"/><text x="778" y="600" fill="#64748B">Source net revenue</text><text x="1125" y="600" text-anchor="end" fill="#172033" font-size="18" font-weight="700">£19.29M</text></g>
  <text x="40" y="657" fill="#64748B" font-family="Segoe UI" font-size="10">Portfolio dashboard preview · Source: UCI Online Retail II · Controlled live ERP UAT passed; full-population ERP metrics not represented</text>
</svg>

